<?xml version="1.0" encoding="UTF-8" standalone="no"?>
<svg
   xmlns:dc="http://purl.org/dc/elements/1.1/"
   xmlns:cc="http://creativecommons.org/ns#"
   xmlns:rdf="http://www.w3.org/1999/02/22-rdf-syntax-ns#"
   xmlns:svg="http://www.w3.org/2000/svg"
   xmlns="http://www.w3.org/2000/svg"
   xmlns:sodipodi="http://sodipodi.sourceforge.net/DTD/sodipodi-0.dtd"
   xmlns:inkscape="http://www.inkscape.org/namespaces/inkscape"
   viewBox="0 0 16.000001 16.000001"
   id="svg2"
   version="1.1"
   inkscape:version="0.91 r13725"
   width="100%"
   height="100%"
   sodipodi:docname="close.svg">
  <metadata
     id="metadata12">
    <rdf:RDF>
      <cc:Work
         rdf:about="">
        <dc:format>image/svg+xml</dc:format>
        <dc:type
           rdf:resource="http://purl.org/dc/dcmitype/StillImage" />
        <dc:title></dc:title>
      </cc:Work>
    </rdf:RDF>
  </metadata>
  <defs
     id="defs10" />
  <sodipodi:namedview
     pagecolor="#ffffff"
     bordercolor="#666666"
     borderopacity="1"
     objecttolerance="10"
     gridtolerance="10"
     guidetolerance="10"
     inkscape:pageopacity="0"
     inkscape:pageshadow="2"
     inkscape:window-width="1920"
     inkscape:window-height="1028"
     id="namedview8"
     showgrid="false"
     fit-margin-top="0"
     fit-margin-left="0"
     fit-margin-right="0"
     fit-margin-bottom="0"
     inkscape:zoom="58.999996"
     inkscape:cx="5.0937213"
     inkscape:cy="8.1891038"
     inkscape:window-x="0"
     inkscape:window-y="0"
     inkscape:window-maximized="1"
     inkscape:current-layer="layer1"
     showguides="true">
    <inkscape:grid
       type="xygrid"
       id="grid4135" />
  </sodipodi:namedview>
  <g
     transform="matrix(1.1479821,0,0,1.1479821,-47.103141,-595.83858)"
     id="g4"
     style="fill:#d1cbcd;fill-opacity:1">
    <path
       style="line-height:normal;color:#bebebe;fill:#d1cbcd;fill-opacity:1"
       d="m 48,519.03125 c -3.85327,0 -6.96875,3.11547 -6.96875,6.96875 0,3.85327 3.11548,6.96875 6.96875,6.96875 3.85327,0 6.96875,-3.11548 6.96875,-6.96875 0,-3.85328 -3.11548,-6.96875 -6.96875,-6.96875 z M 45,523 l 1,0 c 0.01037,-1.2e-4 0.02079,-4.6e-4 0.03125,0 0.254951,0.0112 0.50987,0.12858 0.6875,0.3125 L 48,524.59375 49.3125,523.3125 C 49.578125,523.082 49.759172,523.007 50,523 l 1,0 0,1 c 0,0.28647 -0.03434,0.55065 -0.25,0.75 l -1.28125,1.28125 1.25,1.25 C 50.906938,527.46942 50.999992,527.7347 51,528 l 0,1 -1,0 c -0.265301,-10e-6 -0.530586,-0.0931 -0.71875,-0.28125 L 48,527.4375 46.71875,528.71875 C 46.530586,528.90694 46.26529,529 46,529 l -1,0 0,-1 c -3e-6,-0.26529 0.09306,-0.53058 0.28125,-0.71875 l 1.28125,-1.25 L 45.28125,524.75 C 45.070508,524.55537 44.97809,524.28075 45,524 l 0,-1 z"
       id="path6"
       inkscape:connector-curvature="0" />
  </g>
  <g
     inkscape:groupmode="layer"
     id="layer1"
     inkscape:label="Layer 1">
    <path
       style="fill:#140615;fill-opacity:1"
       d="M 4.5588947,10.772762 C 4.567263,10.023953 4.5753109,9.9647788 4.7019307,9.7210586 4.7735268,9.5832491 4.8851951,9.4669895 5.8173623,8.5597657 L 6.3596474,8.0319914 5.5669184,7.2392409 C 5.1309175,6.8032281 4.7545959,6.4172255 4.7306482,6.3814576 4.6582358,6.2733032 4.6059113,6.1431694 4.579651,6.0059194 4.5603861,5.9052305 4.5547382,5.725917 4.5547382,5.2149656 l 0,-0.660746 0.6652543,0.00687 c 0.7234251,0.00747 0.7329986,0.00859 0.9533542,0.1117094 0.060232,0.028186 0.1458968,0.075873 0.1903672,0.1059715 0.04447,0.030098 0.4304424,0.4043261 0.857716,0.8316167 L 7.9982911,6.3872793 8.2328352,6.1626475 C 8.3618344,6.0391 8.7181944,5.693264 9.0247463,5.394123 9.5784577,4.8537976 9.7381583,4.7196427 9.9237312,4.6389399 10.081094,4.5705054 10.224019,4.5578765 10.84823,4.557251 l 0.590101,-5.913e-4 -0.0064,0.7415254 c -0.0055,0.6378178 -0.01044,0.7557483 -0.03553,0.8432204 -0.06906,0.2407492 -0.06214,0.2325206 -0.915737,1.0890581 L 9.6825265,8.031386 10.420881,8.7728365 c 0.406096,0.4077979 0.762807,0.7734276 0.792692,0.8125106 0.07943,0.1038837 0.164793,0.3000132 0.195591,0.4494119 0.02181,0.105824 0.02693,0.251718 0.02693,0.767994 l 0,0.637352 -0.682204,-0.0062 C 9.9970809,11.427024 9.9839311,11.425396 9.7411792,11.308493 9.620611,11.250431 9.5725739,11.205923 8.8089757,10.444783 L 8.0038909,9.6422903 7.2072807,10.436302 l -0.7966102,0.794012 -0.161017,0.07795 c -0.2509649,0.121497 -0.3184143,0.129751 -1.0602466,0.129751 l -0.6379468,0 0.00743,-0.665254 z"
       id="path4139"
       inkscape:connector-curvature="0" />
  </g>
</svg>
